<svg width="138" height="138" viewBox="0 0 138 138" fill="none" xmlns="http://www.w3.org/2000/svg">
<g filter="url(#filter0_d_1_96)">
<rect x="19" y="19" width="100" height="100" rx="5" fill="white"/>
</g>
<mask id="mask0_1_96" style="mask-type:alpha" maskUnits="userSpaceOnUse" x="30" y="39" width="78" height="60">
<rect x="30" y="39" width="78" height="60" rx="10" fill="white"/>
</mask>
<g mask="url(#mask0_1_96)">
<path d="M84.973 80.5772C86.9283 82.4928 86.9286 85.5934 84.973 87.5093L83.7678 88.6901C83.4422 89.0092 82.9143 89.0093 82.5887 88.6901C82.2631 88.371 82.263 87.8538 82.5887 87.5347L83.7939 86.3539C85.0974 85.0769 85.0976 83.0098 83.7939 81.7325L79.1508 77.1832C77.8502 75.9092 75.7343 75.9092 74.4339 77.1832L72.493 79.0848C70.918 80.628 68.3687 80.6282 66.7935 79.0848L58.195 70.6603C56.62 69.1172 56.6198 66.6194 58.195 65.0761L60.1358 63.1745C61.4363 61.9004 61.4363 59.8272 60.1358 58.5531L55.4926 54.0039C54.1892 52.7268 52.0793 52.7267 50.7758 54.0039L49.0806 55.6647C44.5184 60.1347 44.5179 67.3693 49.0806 71.8397L65.5896 88.0147C68.868 91.2266 73.777 92.2343 78.0969 90.582C78.5259 90.4179 79.0093 90.6256 79.1768 91.0458C79.3443 91.4662 79.1323 91.9399 78.7034 92.104C73.7619 93.9941 68.1528 92.8368 64.4105 89.17L47.9013 72.9951C42.6996 67.8986 42.6996 59.6059 47.9013 54.5094L49.5965 52.8486C51.5516 50.933 54.7163 50.9327 56.6718 52.8486L61.315 57.3978C63.2656 59.309 63.2656 62.4187 61.315 64.3299L59.3741 66.2315C58.4509 67.1361 58.4508 68.6003 59.3741 69.505L67.9726 77.9295C68.8937 78.8321 70.3925 78.8321 71.3138 77.9295L73.2546 76.028C75.2052 74.1169 78.3793 74.1168 80.3299 76.028L84.973 80.5772ZM89.8308 45H68.985C66.6861 45 64.8158 46.8324 64.8158 49.0848V57.2544C64.8158 59.5068 66.6861 61.3392 68.985 61.3392H69.8188V63.9943C69.8188 64.4463 70.1933 64.8113 70.6527 64.8113C70.9708 64.8113 70.5475 65.0076 77.011 61.2235C77.4063 60.9921 77.5352 60.4905 77.299 60.1032C77.0629 59.7158 76.5509 59.5895 76.1556 59.8209L71.4865 62.5544V60.5223C71.4865 60.0711 71.1132 59.7053 70.6527 59.7053H68.985C67.6057 59.7053 66.4835 58.6058 66.4835 57.2544V49.0848C66.4835 47.7334 67.6057 46.6339 68.985 46.6339H89.8308C91.2101 46.6339 92.3323 47.7334 92.3323 49.0848V57.2544C92.3323 58.6058 91.2101 59.7053 89.8308 59.7053H81.1451C80.6846 59.7053 80.3113 60.0711 80.3113 60.5223C80.3113 60.9734 80.6846 61.3392 81.1451 61.3392H89.8308C92.1297 61.3392 94 59.5068 94 57.2544V49.0848C94 46.8324 92.1297 45 89.8308 45ZM71.3823 53.9866C72.6467 53.9866 73.6753 52.9787 73.6753 51.7399C73.6753 50.5011 72.6467 49.4933 71.3823 49.4933H69.9231C69.4626 49.4933 69.0892 49.8591 69.0892 50.3102C69.0892 50.7614 69.4626 51.1272 69.9231 51.1272H71.3823C71.7272 51.1272 72.0077 51.402 72.0077 51.7399C72.0077 52.0778 71.7272 52.3526 71.3823 52.3526C70.1179 52.3526 69.0892 53.3605 69.0892 54.5993V56.029C69.0892 56.4801 69.4626 56.8459 69.9231 56.8459H72.8415C73.302 56.8459 73.6753 56.4801 73.6753 56.029C73.6753 55.5778 73.302 55.212 72.8415 55.212H70.7569V54.5993C70.7569 54.2614 71.0374 53.9866 71.3823 53.9866ZM78.6783 56.8459C79.1388 56.8459 79.5121 56.4801 79.5121 56.029C79.5121 55.3349 79.5121 51.007 79.5121 50.3102C79.5121 49.8591 79.1388 49.4933 78.6783 49.4933C78.2178 49.4933 77.8445 49.8591 77.8445 50.3102V52.3526H76.5937V50.3102C76.5937 49.8591 76.2204 49.4933 75.7599 49.4933C75.2994 49.4933 74.9261 49.8591 74.9261 50.3102V53.1696C74.9261 53.6208 75.2994 53.9866 75.7599 53.9866H77.8445V56.029C77.8445 56.4801 78.2177 56.8459 78.6783 56.8459ZM86.8626 56.8461C87.2087 56.8461 87.5323 56.6333 87.6511 56.2946L89.6575 50.5759C89.8434 50.046 89.4409 49.4933 88.869 49.4933H85.9745C85.514 49.4933 85.1406 49.8591 85.1406 50.3102C85.1406 50.7614 85.514 51.1272 85.9745 51.1272H87.7007L86.0741 55.7634C85.887 56.296 86.2937 56.8464 86.8626 56.8461ZM82.3818 56.2249L83.841 50.5062C83.9526 50.0684 83.681 49.6249 83.2343 49.5154C82.7874 49.4062 82.3348 49.6722 82.223 50.1099L80.7638 55.8286C80.6522 56.2664 80.9238 56.7099 81.3706 56.8194C81.818 56.9287 82.2703 56.6622 82.3818 56.2249Z" fill="#9E3040"/>
</g>
<defs>
<filter id="filter0_d_1_96" x="0" y="0" width="138" height="138" filterUnits="userSpaceOnUse" color-interpolation-filters="sRGB">
<feFlood flood-opacity="0" result="BackgroundImageFix"/>
<feColorMatrix in="SourceAlpha" type="matrix" values="0 0 0 0 0 0 0 0 0 0 0 0 0 0 0 0 0 0 127 0" result="hardAlpha"/>
<feOffset/>
<feGaussianBlur stdDeviation="9.5"/>
<feColorMatrix type="matrix" values="0 0 0 0 0 0 0 0 0 0 0 0 0 0 0 0 0 0 0.19 0"/>
<feBlend mode="normal" in2="BackgroundImageFix" result="effect1_dropShadow_1_96"/>
<feBlend mode="normal" in="SourceGraphic" in2="effect1_dropShadow_1_96" result="shape"/>
</filter>
</defs>
</svg>
