<svg width="18" height="17" viewBox="0 0 18 17" fill="none" xmlns="http://www.w3.org/2000/svg">
<path d="M15.1806 10.1505C14.8121 9.76676 14.3676 9.56162 13.8965 9.56162C13.4293 9.56162 12.981 9.76296 12.5973 10.1467L11.3968 11.3434C11.298 11.2902 11.1992 11.2408 11.1043 11.1914C10.9675 11.123 10.8383 11.0584 10.7281 10.99C9.60364 10.2758 8.5817 9.34507 7.60155 8.14078C7.12667 7.54053 6.80755 7.03526 6.57581 6.5224C6.88733 6.23747 7.17606 5.94114 7.45719 5.65622C7.56356 5.54984 7.66993 5.43967 7.77631 5.3333C8.5741 4.53551 8.5741 3.50217 7.77631 2.70438L6.73917 1.66724C6.6214 1.54947 6.49983 1.4279 6.38586 1.30634C6.15792 1.0708 5.91858 0.827658 5.67165 0.599716C5.30314 0.23501 4.86245 0.0412598 4.39897 0.0412598C3.93549 0.0412598 3.48721 0.23501 3.1073 0.599716C3.10351 0.603515 3.10351 0.603515 3.09971 0.607314L1.80804 1.91038C1.32176 2.39666 1.04443 2.9893 0.98365 3.67693C0.892473 4.78624 1.21919 5.81958 1.46993 6.4958C2.08537 8.15598 3.00473 9.69458 4.37618 11.3434C6.04015 13.3302 8.04224 14.8992 10.3292 16.0048C11.203 16.4189 12.3693 16.9089 13.6724 16.9925C13.7522 16.9963 13.8357 17.0001 13.9117 17.0001C14.7893 17.0001 15.5263 16.6848 16.1038 16.0579C16.1076 16.0504 16.1152 16.0466 16.119 16.039C16.3165 15.7996 16.5445 15.5831 16.7838 15.3513C16.9472 15.1956 17.1143 15.0322 17.2777 14.8613C17.6538 14.47 17.8513 14.0141 17.8513 13.5468C17.8513 13.0757 17.65 12.6236 17.2663 12.2437L15.1806 10.1505ZM16.5407 14.1508C16.5369 14.1508 16.5369 14.1546 16.5407 14.1508C16.3925 14.3104 16.2405 14.4548 16.0772 14.6143C15.8302 14.8499 15.5795 15.0968 15.344 15.3741C14.9603 15.7844 14.5082 15.9782 13.9155 15.9782C13.8585 15.9782 13.7978 15.9782 13.7408 15.9744C12.6125 15.9022 11.5639 15.4615 10.7775 15.0854C8.62729 14.0445 6.73917 12.5666 5.17017 10.6937C3.87471 9.13233 3.00853 7.6887 2.43488 6.13869C2.08157 5.19274 1.9524 4.45573 2.00939 3.7605C2.04738 3.31602 2.21833 2.94751 2.53365 2.63219L3.82912 1.33673C4.01527 1.16197 4.21282 1.067 4.40657 1.067C4.64591 1.067 4.83966 1.21136 4.96123 1.33293C4.96503 1.33673 4.96883 1.34053 4.97263 1.34433C5.20437 1.56087 5.42471 1.78501 5.65645 2.02435C5.77422 2.14592 5.89579 2.26749 6.01736 2.39286L7.05449 3.42999C7.45719 3.83269 7.45719 4.20499 7.05449 4.60769C6.94432 4.71786 6.83795 4.82803 6.72777 4.9344C6.40866 5.26112 6.10473 5.56504 5.77422 5.86137C5.76662 5.86896 5.75902 5.87276 5.75522 5.88036C5.42851 6.20708 5.48929 6.52619 5.55768 6.74274C5.56147 6.75414 5.56527 6.76553 5.56907 6.77693C5.8388 7.43036 6.21871 8.0458 6.79616 8.77902L6.79996 8.78282C7.84849 10.0745 8.954 11.0812 10.1735 11.8524C10.3293 11.9512 10.4888 12.031 10.6408 12.107C10.7775 12.1753 10.9067 12.2399 11.0169 12.3083C11.0321 12.3159 11.0473 12.3273 11.0625 12.3349C11.1916 12.3995 11.3132 12.4299 11.4386 12.4299C11.7539 12.4299 11.9514 12.2323 12.016 12.1677L13.3153 10.8685C13.4444 10.7393 13.6496 10.5836 13.8889 10.5836C14.1245 10.5836 14.3182 10.7317 14.436 10.8609C14.4398 10.8647 14.4398 10.8647 14.4436 10.8685L16.5369 12.9617C16.9282 13.3492 16.9282 13.7481 16.5407 14.1508Z" fill="#232323"/>
</svg>
