<svg width="60" height="14" viewBox="0 0 60 14" fill="none" xmlns="http://www.w3.org/2000/svg">
<path d="M8.04401 9.598C8.04401 10.678 7.65401 11.542 6.87401 12.19C6.10601 12.826 5.09201 13.144 3.83201 13.144C2.46401 13.144 1.33001 12.886 0.430008 12.37V10.048C1.46201 10.792 2.59001 11.164 3.81401 11.164C4.36601 11.164 4.81001 11.032 5.14601 10.768C5.48201 10.492 5.65001 10.126 5.65001 9.67C5.65001 9.454 5.60801 9.262 5.52401 9.094C5.44001 8.926 5.26601 8.758 5.00201 8.59C4.75001 8.422 4.55201 8.302 4.40801 8.23C4.27601 8.158 3.99401 8.026 3.56201 7.834C3.44201 7.774 3.35201 7.732 3.29201 7.708C2.84801 7.504 2.48801 7.324 2.21201 7.168C1.93601 7 1.63601 6.778 1.31201 6.502C0.988008 6.226 0.742008 5.896 0.574008 5.512C0.418008 5.128 0.340008 4.69 0.340008 4.198C0.340008 3.166 0.718008 2.338 1.47401 1.714C2.24201 1.09 3.25601 0.778 4.51601 0.778C5.65601 0.778 6.64001 0.976 7.46801 1.372V3.568C6.56801 3.028 5.60801 2.758 4.58801 2.758C4.02401 2.758 3.58001 2.884 3.25601 3.136C2.94401 3.388 2.78801 3.712 2.78801 4.108C2.78801 4.504 2.95601 4.834 3.29201 5.098C3.64001 5.35 4.15601 5.632 4.84001 5.944C5.32001 6.16 5.71001 6.352 6.01001 6.52C6.31001 6.676 6.63401 6.898 6.98201 7.186C7.34201 7.474 7.60601 7.822 7.77401 8.23C7.95401 8.626 8.04401 9.082 8.04401 9.598ZM12.4464 13H10.1784V0.868H12.4464V13ZM25.1945 11.956C24.0905 12.748 22.7105 13.144 21.0545 13.144C19.1345 13.144 17.5805 12.586 16.3925 11.47C15.2165 10.354 14.6285 8.836 14.6285 6.916C14.6285 5.044 15.2345 3.532 16.4465 2.38C17.6705 1.228 19.2125 0.651999 21.0725 0.651999C22.4525 0.651999 23.6345 0.909999 24.6185 1.426V3.748C23.5145 3.088 22.3445 2.758 21.1085 2.758C19.8965 2.758 18.9185 3.136 18.1745 3.892C17.4305 4.648 17.0585 5.656 17.0585 6.916C17.0585 8.2 17.4185 9.214 18.1385 9.958C18.8705 10.69 19.8725 11.056 21.1445 11.056C21.7685 11.056 22.3745 10.948 22.9625 10.732V7.87H20.7305V5.926H25.1945V11.758H25.1765L25.1945 11.956ZM29.863 13H27.595V0.868H30.169L33.085 5.926C33.565 6.754 33.991 7.528 34.363 8.248C34.747 8.956 35.005 9.46 35.137 9.76L35.335 10.21C35.239 9.214 35.191 7.786 35.191 5.926V0.868H37.477V13H34.885L31.933 7.96C31.465 7.168 31.039 6.412 30.655 5.692C30.283 4.96 30.025 4.432 29.881 4.108L29.665 3.604C29.797 4.744 29.863 6.19 29.863 7.942V13ZM46.7413 13H44.4733V0.868H46.7413V13ZM51.6774 13H49.4094V0.868H51.9834L54.8994 5.926C55.3794 6.754 55.8054 7.528 56.1774 8.248C56.5614 8.956 56.8194 9.46 56.9514 9.76L57.1494 10.21C57.0534 9.214 57.0054 7.786 57.0054 5.926V0.868H59.2914V13H56.6994L53.7474 7.96C53.2794 7.168 52.8534 6.412 52.4694 5.692C52.0974 4.96 51.8394 4.432 51.6954 4.108L51.4794 3.604C51.6114 4.744 51.6774 6.19 51.6774 7.942V13Z" fill="white"/>
</svg>
